<svg id="Ebene_1" data-name="Ebene 1" xmlns="http://www.w3.org/2000/svg" viewBox="0 0 396.1328 236.3261"><defs><style>.cls-1{fill:#e28e00;}.cls-2{fill:#00aac9;}</style></defs><title>LogoHAKHASITHTL_white</title><polygon class="cls-1" points="115.024 73.843 114.975 73.848 114.875 73.858 112.338 86.821 120.05 86.059 115.024 73.843"/><polygon class="cls-1" points="119.204 116.64 119.104 116.649 116.568 129.613 124.28 128.851 119.254 116.635 119.204 116.64"/><path class="cls-1" d="M413.3647,247.1689a90.57,90.57,0,0,0-76.29-41.8681,91.9718,91.9718,0,0,0-10.958.66,90.64,90.64,0,0,0-73.6045,123.05l151.2656-15.3271c-.6606-3-1.1894-6.0547-1.5634-9.1611A94.9125,94.9125,0,0,1,413.3647,247.1689Zm-85.87-11.6958,7.4141-.7329L353.18,270.1167l-10.2,1.0083-2.3184-5.147-12.7881,1.2642-1.414,5.5161-10.1016.9985ZM278.9814,240.27l9.4043-.93,1.3672,13.8331,12.042-1.19-1.3672-13.833,9.4053-.93,3.6406,36.8228-9.4052.93-1.4561-14.7285-12.042,1.19,1.4561,14.7285-9.4043.93Zm29.3165,77.4942-1.4561-14.7295-12.042,1.19,1.457,14.7295-9.4043.93-3.6406-36.8233,9.4043-.93,1.3672,13.833,12.042-1.1905-1.3672-13.833,9.4053-.93,3.6406,36.8233ZM347.21,313.916l-2.3184-5.1465-12.7881,1.2637-1.415,5.5166-10.1016.999,11.1387-38.2842,7.414-.7329,18.27,35.3765Zm24.3486-1.7031c-10.6484,1.0527-13.9746-5.6524-14.4424-10.3809l-.1182-1.1933,9.3555-.9258c.4238,4.2793,3.1338,4.7656,4.3281,4.6484a3.5718,3.5718,0,0,0,3.2354-3.8877c-.2412-2.4384-1.8447-2.8828-7.7529-4.7109-2.6905-.7891-9.3662-2.7422-10.05-9.6592s5.6455-11.5107,11.8154-12.1211c3.6328-.3589,7.6963.5957,10.3662,3.1958a11.171,11.171,0,0,1,3.1562,7.0239l-9.3046.92c-.3223-1.2242-.8536-3.5332-3.7383-3.2481a3.0813,3.0813,0,0,0-2.95,3.2051c.2168,2.19,1.2568,2.54,8.1709,4.8706,7.1719,2.4067,9.2275,5.4194,9.65,9.6987C383.8125,305.0215,381.3115,311.249,371.5586,312.2129Zm4.5586-44.3638-11.626-14.93-.1.01,1.5742,15.9233-9.4043.93L352.9209,232.96l9.4043-.93,1.6377,16.57.1-.01,8.7627-17.5981,9.8525-.9741-10.3759,19.5664,14.8125,17.1777Z" transform="translate(-217.3848 -172.7012)"/><path class="cls-1" d="M353.2861,348.8438l-3.72.3681.5586,5.6436,3.72-.3682c1.0039-.0986,3.93-.3887,3.6358-3.3564C357.2158,348.4551,354.541,348.72,353.2861,348.8438Z" transform="translate(-217.3848 -172.7012)"/><path class="cls-1" d="M354.8145,339.5332c-.2315-2.3418-2.3633-2.1309-3.5752-2.0107l-2.8008.2773.4756,4.8076,2.8007-.2773C352.8008,342.2227,355.0586,342,354.8145,339.5332Z" transform="translate(-217.3848 -172.7012)"/><path class="cls-1" d="M327.708,351.373l-3.7207.3672.5586,5.6436,3.7207-.3682c1.0039-.0986,3.93-.3886,3.6357-3.3564C331.6377,350.9844,328.9619,351.248,327.708,351.373Z" transform="translate(-217.3848 -172.7012)"/><path class="cls-1" d="M329.2363,342.0615c-.2314-2.3408-2.3642-2.13-3.5761-2.0107l-2.8008.2773.4756,4.8076,2.8007-.2763C327.2227,344.752,329.4805,344.5283,329.2363,342.0615Z" transform="translate(-217.3848 -172.7012)"/><path class="cls-1" d="M404.9946,318.5859,254.5532,333.83a90.6488,90.6488,0,0,0,82.2852,52.85,91.99,91.99,0,0,0,10.9541-.6592A90.0837,90.0837,0,0,0,408.28,351.9873a91.9969,91.9969,0,0,0,6.7646-9.917A95.11,95.11,0,0,1,404.9946,318.5859ZM305.7568,366.248l-7.9013.7813-1.1114-11.2441-11.1865-18.7764,8.57-.8477,5.8252,11.961,3.4131-12.8741,8.4863-.8388-7.207,20.5947Zm31.584-5.8232c-2.6074,2.6641-4.626,3.1592-9.8515,3.6748l-9.8243.9717-3.0586-30.9346,9.5332-.9424c5.2247-.5166,7.6973-.2548,10.2032,2.03a7.174,7.174,0,0,1,2.3437,4.918,7.02,7.02,0,0,1-2.9785,6.5849,7.1572,7.1572,0,0,1,5.8106,6.6846A8.9462,8.9462,0,0,1,337.3408,360.4248Zm25.5781-2.5283c-2.6074,2.664-4.6259,3.1582-9.8515,3.6748l-9.8242.9717-3.0586-30.9356,9.5332-.9414c5.2246-.5166,7.6982-.2549,10.2031,2.03a7.1659,7.1659,0,0,1,2.3437,4.918,7.0185,7.0185,0,0,1-2.9785,6.5849,7.1584,7.1584,0,0,1,5.8116,6.6846A8.9443,8.9443,0,0,1,362.9189,357.8965Zm16.8311,1.6279c-8.9473.8838-11.7412-4.749-12.1338-8.72l-.1-1.0039,7.8594-.7774c.3554,3.5967,2.6338,4.0039,3.6377,3.9043a2.9972,2.9972,0,0,0,2.7158-3.2646c-.2022-2.0488-1.5488-2.4229-6.5127-3.958-2.26-.6621-7.8672-2.3037-8.4414-8.1143s4.7422-9.6709,9.9258-10.1836a11.0807,11.0807,0,0,1,8.708,2.6846,9.3922,9.3922,0,0,1,2.6513,5.9014l-7.8164.7724c-.2705-1.0283-.7168-2.9687-3.1406-2.7285a2.588,2.588,0,0,0-2.4775,2.6934c.1816,1.8388,1.0556,2.1328,6.8633,4.0908,6.0244,2.0215,7.7529,4.5517,8.1084,8.1475C390.0439,353.4834,387.9434,358.7148,379.75,359.5244Z" transform="translate(-217.3848 -172.7012)"/><path class="cls-2" d="M586.99,282.2622a90.6831,90.6831,0,0,0-89.9111-79.85,91.9384,91.9384,0,0,0-10.958.66,90.57,90.57,0,0,0-77.5723,110.1411l179.0733-18.145A92.0814,92.0814,0,0,0,586.99,282.2622ZM426.8291,306.4238l-4.3936-41.206,10.5245-1.1221,4.3935,41.2061Zm22.9424-2.4463-3.4082-31.9629-8.1309.8672-.9853-9.2431,26.7285-2.85.9853,9.2422-8.0732.8613,3.4082,31.9629ZM463.4648,290.86l-.9677-9.0772,15.6474-1.6689.9678,9.0771Zm44.6065,6.9-1.7578-16.4834-13.4756,1.4375,1.7578,16.4834L484.0723,300.32l-4.3936-41.206,10.5234-1.1221,1.65,15.4795,13.4756-1.4375-1.65-15.4795,10.5244-1.1221,4.3936,41.2061Zm33.4668-3.5683-10.5244,1.1221-3.4082-31.9629-8.1309.8672-.9853-9.2432,26.7285-2.8506.9853,9.2441-8.0732.86Zm12.584-1.3418-4.3936-41.2061,10.5244-1.122,3.4082,31.9619,12.1944-1.3008.9853,9.2441Z" transform="translate(-217.3848 -172.7012)"/><path class="cls-2" d="M505.874,333.5518l-3.7187.3955.6015,5.6386,3.7178-.3955c1.0029-.1074,3.9268-.4189,3.61-3.3847C509.8,333.1328,507.126,333.418,505.874,333.5518Z" transform="translate(-217.3848 -172.7012)"/><path class="cls-2" d="M507.33,324.2285c-.249-2.3389-2.38-2.1113-3.5908-1.9824l-2.7989.2988.5117,4.8028,2.7989-.2979C505.3369,326.9336,507.5928,326.6934,507.33,324.2285Z" transform="translate(-217.3848 -172.7012)"/><path class="cls-2" d="M481.7715,326.9541c-.249-2.3389-2.38-2.1123-3.5908-1.9824l-2.7989.2978.5127,4.8037,2.7989-.2978C479.7783,329.6592,482.0342,329.4189,481.7715,326.9541Z" transform="translate(-217.3848 -172.7012)"/><path class="cls-2" d="M409.811,318.11a90.6682,90.6682,0,0,0,87.0308,65.6806,91.9888,91.9888,0,0,0,10.9541-.6592,90.7495,90.7495,0,0,0,79.5986-83.0156Zm48.6675,33.2109-7.8945.8418-1.1983-11.2363-11.33-18.69,8.5634-.9131,5.918,11.9161,3.3135-12.9,8.48-.9043-7.05,20.65Zm31.5381-6.0674c-2.5859,2.6836-4.6016,3.1953-9.8223,3.752l-9.8164,1.0468-3.2959-30.9111,9.5235-1.0156c5.2216-.5567,7.6972-.3135,10.2207,1.9531a7.1654,7.1654,0,0,1,2.3808,4.8984,7.02,7.02,0,0,1-2.9277,6.6084,7.1575,7.1575,0,0,1,5.8613,6.64A8.9425,8.9425,0,0,1,490.0166,345.2539Zm25.5586-2.7246c-2.5859,2.6836-4.6016,3.1943-9.8232,3.751l-9.8165,1.0468L492.64,316.416l9.5245-1.0156c5.2216-.5566,7.6972-.3125,10.22,1.9531a7.17,7.17,0,0,1,2.3818,4.8985,7.0227,7.0227,0,0,1-2.9277,6.6084,7.1574,7.1574,0,0,1,5.8613,6.64A8.9459,8.9459,0,0,1,515.5752,342.5293Zm16.8428,1.498c-8.9395.9532-11.7764-4.6582-12.2-8.6259l-.1065-1.003,7.8526-.8369c.3828,3.5928,2.664,3.9824,3.667,3.876a3,3,0,0,0,2.6914-3.2861c-.2188-2.0469-1.5674-2.4092-6.543-3.9073-2.2647-.6455-7.8848-2.2431-8.5039-8.0488-.6191-5.8076,4.667-9.709,9.8467-10.2607a11.0826,11.0826,0,0,1,8.7285,2.6181,9.39,9.39,0,0,1,2.6973,5.8809l-7.8106.833c-.2793-1.0273-.74-2.9629-3.1621-2.7051a2.5881,2.5881,0,0,0-2.4561,2.7119c.1954,1.8379,1.07,2.1241,6.8936,4.0391,6.041,1.9746,7.7881,4.4922,8.1709,8.085C542.665,337.9082,540.6045,343.1543,532.418,344.0273Z" transform="translate(-217.3848 -172.7012)"/><path class="cls-2" d="M480.3154,336.2764l-3.7168.3965.6006,5.6386,3.7168-.3965c1.0029-.1064,3.9268-.4189,3.61-3.3837C484.2412,335.8574,481.5693,336.1426,480.3154,336.2764Z" transform="translate(-217.3848 -172.7012)"/><path class="cls-2" d="M440.9258,207.2485a4.2909,4.2909,0,0,1,.9707,3.09,3.68,3.68,0,0,1-1.6133,2.5625l-4.9023,3.5952-13.1055-17.87,4.9023-3.5952a3.6509,3.6509,0,0,1,2.9356-.7579,4.35,4.35,0,0,1,2.664,1.8643Zm-2.74,1.3257-7.5292-10.2651a1.594,1.594,0,0,0-2.5059-.4624l-1.7871,1.3115,9.7392,13.2793,1.7276-1.2666A1.6393,1.6393,0,0,0,438.1855,208.5742Z" transform="translate(-217.3848 -172.7012)"/><path class="cls-2" d="M439.5313,193.9043l-2.4981,1.51-1.7285-2.86,2.498-1.51Zm8.4394,14.01-2.4551,1.4834-7.3984-12.24,2.4541-1.4829Z" transform="translate(-217.3848 -172.7012)"/><path class="cls-2" d="M456.6719,201.3628a1.51,1.51,0,0,1-.6817,2.3174l-4.5039,2.2475a1.512,1.512,0,0,1-2.2617-.8506l-4.8027-9.63a1.5106,1.5106,0,0,1,.6806-2.3174l4.5049-2.2471a1.5107,1.5107,0,0,1,2.2608.85l2.3447,4.7012-.32,1.1572L449.6621,199.7l1.7891,3.5869,2.4511-1.2236-1.0615-2.1289,2.4971-1.2451Zm-5.5-4.7725-1.5293-3.0669-2.4512,1.2227,1.5293,3.0669Z" transform="translate(-217.3848 -172.7012)"/><path class="cls-2" d="M474.5371,197.0962l-2.8838.85-2.81-9.5352-3.875,1.1426,2.8085,9.5342-2.8593.8433-6.2647-21.2574,2.86-.8427,2.582,8.7607,3.875-1.1416-2.582-8.7612,2.8857-.8506Z" transform="translate(-217.3848 -172.7012)"/><path class="cls-2" d="M482.2012,176.1934l-3.24.5556,3.253,18.9531-2.9268.502-3.2519-18.9526-3.2422.5561-.4942-2.8887,9.4063-1.6152Z" transform="translate(-217.3848 -172.7012)"/><path class="cls-2" d="M494.9033,194.4844l-7.82.5273-1.4922-22.11,2.9756-.2,1.293,19.1577,4.8437-.3276Z" transform="translate(-217.3848 -172.7012)"/><path class="cls-2" d="M509.6045,175.8047l-2.1338-.1631-.3867,5.0254,1.8555.1426-.211,2.7539-1.8555-.1431-.8828,11.5068-2.8847-.2207.8828-11.5073-1.3213-.1015.2109-2.753,1.3223.1016.4658-6.0708q.1348-1.7659,1.75-1.6411l3.4043.2612Z" transform="translate(-217.3848 -172.7012)"/><path class="cls-2" d="M517.8115,196.6221l-2.8652-.4825.082-.4892q-1.0224.0153-2.0595.0264a12.4227,12.4227,0,0,1-2.045-.1285q-1.5732-.2643-1.2773-2.0092l2.0937-12.4424,2.8536.4809-1.9278,11.45,2.7383.3892,1.916-11.38,2.8652.4825Zm-2.2187-15.8389-2.753-.4629.5059-3.0019,2.7529.4629Zm3.833.645-2.752-.4624.5059-3.0024,2.7519.4629Z" transform="translate(-217.3848 -172.7012)"/><path class="cls-2" d="M530.0459,191.2881l-2.7861-.7764.8769-3.15-2.2363-.5644-3.0977,11.1172-2.81-.7837,3.8379-13.7769,2.81.7832-.1406.5044q.9214.0666,1.83.1275a9.7243,9.7243,0,0,1,1.8008.2812q1.5336.4278,1.0664,2.1055Z" transform="translate(-217.3848 -172.7012)"/><path class="cls-2" d="M537.8379,203.2837l-2.7363-1.187L543.93,181.77l2.7344,1.1875Z" transform="translate(-217.3848 -172.7012)"/><path class="cls-2" d="M547.7207,208.3569l-2.58-1.3911,5.5039-10.2075-2.4375-1.25L542.73,205.6655,540.16,204.28l6.7871-12.5889,2.5693,1.3857-.249.461q.9858.3222,1.9521.65a11.93,11.93,0,0,1,1.9131.7744,1.4773,1.4773,0,0,1,.5762,2.2891Z" transform="translate(-217.3848 -172.7012)"/><path class="cls-2" d="M565.0176,196.6006l-1.7842-1.1836-2.7861,4.2017,1.5507,1.0283-1.5253,2.3012-1.5508-1.0273-6.377,9.6182-2.4121-1.5987,6.3779-9.6186-1.1044-.7329,1.5253-2.3008,1.1055.7324,3.3643-5.0752a1.5008,1.5008,0,0,1,2.3271-.5806l2.8457,1.8863Z" transform="translate(-217.3848 -172.7012)"/><path class="cls-2" d="M563.0977,217.3638a1.5012,1.5012,0,0,1-2.37.3676l-4.0752-3.27a1.5128,1.5128,0,0,1-.1738-2.41l6.7363-8.3926a1.5121,1.5121,0,0,1,2.3907-.3511l4.0742,3.271a1.5,1.5,0,0,1,.1543,2.3926Zm-1.65-2.5044,5.5761-6.9458-2.1562-1.731-5.5762,6.9453Z" transform="translate(-217.3848 -172.7012)"/><path class="cls-2" d="M575.2383,220.0337l-2.0528-2.0386,2.3057-2.32-1.6767-1.5854-8.1319,8.1889-2.0713-2.0566,10.0782-10.148,2.07,2.0562-.3692.3721q.7736.5067,1.5352,1.0048a9.721,9.721,0,0,1,1.4336,1.125,1.4776,1.4776,0,0,1-.0967,2.3584Z" transform="translate(-217.3848 -172.7012)"/><path class="cls-2" d="M579.252,238.2969l-1.7657-2.293,9.1914-7.0732-1.7168-2.1368-9.1445,7.0391L574.043,231.53l9.1914-7.0733-1.7168-2.1377-9.1446,7.04-1.7812-2.3135,11.334-8.7236,1.78,2.3134-.4151.3194q.7675.6957,1.5274,1.3813a12.5765,12.5765,0,0,1,1.42,1.4966,1.2744,1.2744,0,0,1,.2871,1.419q.8.7353,1.6094,1.4628a13.3044,13.3044,0,0,1,1.5234,1.5616,1.4765,1.4765,0,0,1-.4082,2.3242Z" transform="translate(-217.3848 -172.7012)"/><path class="cls-2" d="M584.3672,247.3066l-1.3916-2.4184.43-.2476q-.6431-.777-1.2862-1.5537a13.2213,13.2213,0,0,1-1.17-1.6055,1.4767,1.4767,0,0,1,.7149-2.249l4.4668-2.5718a1.51,1.51,0,0,1,2.3535.5411l1.9648,3.4135,2.8477-1.64-1.3926-2.419-1.7676,1.0176-1.3164-2.2871,2.32-1.3345a1.5125,1.5125,0,0,1,2.3545.5415l2.46,4.2745a1.5012,1.5012,0,0,1-.7266,2.2861Zm.8545-3.6826,3.3252-1.914-1.3916-2.419-3.4248,1.9707Z" transform="translate(-217.3848 -172.7012)"/><path class="cls-2" d="M587.6738,254.415l-1.3535-2.9414q-.6768-1.4693.9317-2.2094l8.875-4.084-.5743-1.25,2.5078-1.1548.5762,1.251,3.5235-1.6221,1.2148,2.64-3.5244,1.6216.7822,1.7022-2.5078,1.1533-.7832-1.7022-7.9756,3.67.8154,1.771Z" transform="translate(-217.3848 -172.7012)"/><path class="cls-2" d="M589.4268,258.9634l-1.0235-2.6773,13.3594-5.1064,1.0234,2.6777Zm15.2861-5.814-1.041-2.7265,3.1211-1.1934,1.042,2.7256Z" transform="translate(-217.3848 -172.7012)"/><path class="cls-2" d="M594.3594,268.8511q-1.6992.4929-2.15-1.062l-1.4531-5.0186q-.4585-1.579,1.2412-2.0727l10.3369-2.9952a1.5118,1.5118,0,0,1,2.1582,1.0865l1.4531,5.0185q.4512,1.5543-1.248,2.0474Zm.09-2.9986,8.5547-2.48-.7695-2.6552-8.5547,2.4785Z" transform="translate(-217.3848 -172.7012)"/><path class="cls-2" d="M594.625,279.9385l-.502-2.8872,11.4268-1.9839-.5244-2.69-11.3711,1.9737-.498-2.876,14.0908-2.4458.499,2.876-.5166.0893q.356.9728.6963,1.9365a11.878,11.878,0,0,1,.5732,1.9815q.2725,1.57-1.4433,1.8682Z" transform="translate(-217.3848 -172.7012)"/><path class="cls-2" d="M597.1543,290.0684q-1.7666.1128-1.8711-1.501l-.3144-4.8975q-.1056-1.6141,1.6621-1.729l3.0654-.1977.1807,2.7856-2.4024.1548.1641,2.5566,2.2607-.1455,2.6377-4.6533a1.782,1.782,0,0,1,1.4971-.9775l3.3359-.2149q1.7652-.1128,1.8721,1.5264l.3125,4.8462q.104,1.6149-1.6621,1.729l-2.8692.1846-.1777-2.76,2.2041-.1416-.165-2.5576-2.0625.1338-2.61,4.6386a1.78,1.78,0,0,1-1.5254.9912Z" transform="translate(-217.3848 -172.7012)"/><path class="cls-2" d="M595.2158,297.9854l.085-3.2354q.0409-1.6194,1.8105-1.5723l9.7676.2539.0352-1.3754,2.7617.0717-.0362,1.376,3.878.1011-.0752,2.9048-3.8779-.1006-.0489,1.873-2.7607-.0722.0488-1.8731-8.7764-.2285-.0507,1.9492Z" transform="translate(-217.3848 -172.7012)"/><path class="cls-2" d="M595.9248,308.25q-1.7592-.208-1.5654-1.84l.5888-5q.192-1.6318,1.95-1.4248l10.6875,1.26q1.7578.2065,1.5664,1.8389l-.59,5q-.1918,1.6334-1.9492,1.4258l-5.2188-.6153-.791-.9013.5528-4.6963-3.9786-.4688-.3222,2.7207,2.3633.2793-.3272,2.7715Zm7.0068-1.9844,3.4024.4.3213-2.7207-3.4033-.4014Z" transform="translate(-217.3848 -172.7012)"/><path class="cls-2" d="M593.67,318.7207q-1.7256-.394-1.3662-1.9727l1.124-4.9326q.3663-1.6025,2.0909-1.21l10.4931,2.3906q1.7256.3925,1.3613,1.9961l-1.125,4.9326q-.3588,1.5777-2.0859,1.1856l-3.3125-.7549.6309-2.7705,2.4023.5468.58-2.5468-8.6836-1.9795-.58,2.5478,2.6641.6065-.6309,2.7724Z" transform="translate(-217.3848 -172.7012)"/><path class="cls-2" d="M588.5449,328.5693l.9551-2.7714,10.9648,3.7822.8389-2.6094-10.9092-3.7627.9512-2.7588,20.9492,7.2256-.9511,2.7588-7.9239-2.7324c-.1152.68-.2256,1.3593-.33,2.0429a12.6543,12.6543,0,0,1-.4511,2.001q-.5186,1.5074-2.166.9375Z" transform="translate(-217.3848 -172.7012)"/><path class="cls-2" d="M584.0547,338.3467l1.2519-2.6494,10.4854,4.957,1.12-2.502-10.4336-4.9335,1.2481-2.6368,12.9287,6.1114-1.2471,2.6386-.4746-.2236q-.27,1-.5449,1.9834a12.1938,12.1938,0,0,1-.6729,1.9521,1.4783,1.4783,0,0,1-2.2558.6954Z" transform="translate(-217.3848 -172.7012)"/><path class="cls-2" d="M580.0771,348.4189a1.5011,1.5011,0,0,1-.66-2.3056l2.7363-4.4512a1.5122,1.5122,0,0,1,2.3692-.4736l9.167,5.6377a1.5094,1.5094,0,0,1,.6464,2.3261L591.6,353.6035a1.5008,1.5008,0,0,1-2.3555.4522Zm2.2784-1.9492,7.5879,4.6651,1.4492-2.3555-7.5879-4.666Z" transform="translate(-217.3848 -172.7012)"/><path class="cls-2" d="M575.4336,351.7266l1.6992-2.31,17.8526,13.1289-1.6983,2.31Z" transform="translate(-217.3848 -172.7012)"/><path class="cls-2" d="M569.7852,361.2285a1.5,1.5,0,0,1-.2715-2.3828l3.4345-3.9375a1.5118,1.5118,0,0,1,2.4151-.0762l8.11,7.0743a1.5107,1.5107,0,0,1,.253,2.4023l-3.4336,3.9375a1.5019,1.5019,0,0,1-2.3985.0566Zm2.5683-1.5459,6.7129,5.8545,1.8174-2.085-6.7119-5.8535Z" transform="translate(-217.3848 -172.7012)"/><path class="cls-2" d="M558.2852,364.8828a1.512,1.512,0,0,1,.0127-2.417l3.7334-3.4326a1.5114,1.5114,0,0,1,2.4082.19l1.5527,1.6885-2.0733,1.9072-1.1591-1.2627-1.9434,1.7862,2.0039,2.1787,2.2051-2.0274a2.5393,2.5393,0,0,1,1.9473-.7519,2.9505,2.9505,0,0,1,1.9589,1.0664l5.9219,6.44a2.8228,2.8228,0,0,1,.8535,1.8506,2.1672,2.1672,0,0,1-.7871,1.6856,26.2837,26.2837,0,0,1-2.831,1.8164l.3545.3847-2.14,1.9668Zm6.2988,2.5567,5.9512,6.4736q1.1952-.8687,1.457-1.1084a.8768.8768,0,0,0-.0059-1.4l-4.6377-5.0439a.9084.9084,0,0,0-1.4423-.1377Z" transform="translate(-217.3848 -172.7012)"/><path class="cls-2" d="M556.4551,370.6484l2.2637-1.7607,8.7792,11.2891-2.2636,1.76Zm10.0195,12.9248,2.3037-1.791L570.83,384.42l-2.3028,1.792Z" transform="translate(-217.3848 -172.7012)"/><path class="cls-2" d="M548.666,378.1641a1.5113,1.5113,0,0,1,.3819-2.3858l4.1845-2.8a1.5117,1.5117,0,0,1,2.3506.5576l5.9834,8.9444a1.51,1.51,0,0,1-.3818,2.3847l-4.1836,2.8a1.5115,1.5115,0,0,1-2.3506-.5576l-2.9219-4.3662.1719-1.1885,3.93-2.6279-2.2285-3.331-2.2774,1.5234,1.3223,1.9766-2.3184,1.5527Zm6.0606,4.038,1.9043,2.8477,2.2773-1.5244-1.9053-2.8467Z" transform="translate(-217.3848 -172.7012)"/><path class="cls-1" d="M295.4512,388.6533a4.2981,4.2981,0,0,1,2.0942-2.47,3.6791,3.6791,0,0,1,3.0278-.0029l5.6573,2.2246-8.1133,20.622-5.6572-2.2255a3.655,3.655,0,0,1-2.2085-2.0782,4.3471,4.3471,0,0,1,.1548-3.248Zm2.584,1.6113L293.3745,402.11a1.5933,1.5933,0,0,0,.9458,2.3652l2.0635.8115,6.0293-15.3242-1.9922-.7842A1.6387,1.6387,0,0,0,298.0352,390.2646Z" transform="translate(-217.3848 -172.7012)"/><path class="cls-1" d="M284.93,396.97l2.61,1.3047-1.4946,2.9883-2.6108-1.3047Zm7.3393-14.6172,2.565,1.2832-6.399,12.79-2.5634-1.2822Z" transform="translate(-217.3848 -172.7012)"/><path class="cls-1" d="M282.084,378.4932a1.5116,1.5116,0,0,1,2.3242-.6621l4.3047,2.6093a1.5116,1.5116,0,0,1,.4883,2.3662l-5.5772,9.2041a1.5122,1.5122,0,0,1-2.3232.6612l-4.3052-2.6084a1.513,1.513,0,0,1-.4888-2.3672l2.7227-4.4922,1.1484-.3467,4.044,2.45L286.5,381.88l-2.3432-1.42-1.2334,2.0351-2.3868-1.4463Zm-1.0986,7.1992-1.7754,2.93,2.3427,1.42,1.7759-2.93Z" transform="translate(-217.3848 -172.7012)"/><path class="cls-1" d="M268.9365,365.667l2.2593,1.9844-6.562,7.4677,3.0351,2.6661,6.5616-7.4668,2.24,1.9677-14.6279,16.6475-2.24-1.9678,6.0284-6.8613-3.0342-2.667-6.0288,6.86-2.2593-1.9854Z" transform="translate(-217.3848 -172.7012)"/><path class="cls-1" d="M261.8164,357.8682l1.8662,2.0761-.3686.3321q.7917.624,1.5815,1.2509a13.2983,13.2983,0,0,1,1.4795,1.3262,1.478,1.478,0,0,1-.2305,2.35l-3.832,3.4453a1.5116,1.5116,0,0,1-2.416-.039l-2.6328-2.9278-2.4434,2.1963,1.8662,2.0762,1.5166-1.3643,1.7637,1.9629-1.99,1.7891a1.5128,1.5128,0,0,1-2.4161-.0391l-3.2968-3.6679a1.5015,1.5015,0,0,1,.2343-2.3877Zm-.0674,3.78-2.8535,2.5664,1.8662,2.0752,2.9375-2.6406Z" transform="translate(-217.3848 -172.7012)"/><path class="cls-1" d="M255.4287,349.2021l1.7114,2.379-9.4145,6.7724,1.6455,2.1914,9.3682-6.7383,1.7041,2.37-11.61,8.35-1.7041-2.3692.4253-.3066q-.7441-.7192-1.4707-1.4375a11.9878,11.9878,0,0,1-1.3819-1.5332,1.4782,1.4782,0,0,1,.4839-2.3106Z" transform="translate(-217.3848 -172.7012)"/><path class="cls-1" d="M250.0479,339.9092l1.4277,2.53-.4317.2441q1.9586,2.29,2.1338,2.6006a2.1686,2.1686,0,0,1,.2227,1.85,2.8579,2.8579,0,0,1-1.3892,1.5l-7.7085,4.35a2.5955,2.5955,0,0,1-2.6591.2119,4.7465,4.7465,0,0,1-1.6592-1.9023q-.1816-.3224-.5015-.9463t-.4639-.8789l-6.8442,3.86-1.4282-2.53Zm-1.002,3.9013-7.6709,4.3272.8828,1.5654q.4754.8438,1.4131.3155l5.957-3.3614q.9119-.514.4615-1.3144Q249.9832,345.1538,249.0459,343.8105Z" transform="translate(-217.3848 -172.7012)"/><path class="cls-1" d="M244.1646,330.9854a1.511,1.511,0,0,1,2.2753.8125l1.9869,4.6259a1.5107,1.5107,0,0,1-.9776,2.208l-9.8887,4.2481a1.5111,1.5111,0,0,1-2.2749-.8135l-1.9868-4.625a1.51,1.51,0,0,1,.9776-2.208l4.8261-2.0742,1.1377.3847,1.8653,4.3457,3.6826-1.582-1.082-2.5176-2.1856.9395-1.1016-2.5645Zm-5.0787,5.2187-3.1484,1.3535,1.0811,2.5176,3.1489-1.3535Z" transform="translate(-217.3848 -172.7012)"/><path class="cls-1" d="M244.1133,325.2627l.914,2.7178-21.0039,7.0644-.915-2.7178Z" transform="translate(-217.3848 -172.7012)"/><path class="cls-1" d="M239.66,315.5566q1.7175-.4291,2.1093,1.1407l1.1885,4.7617q.3918,1.5689-1.3252,1.998l-2.9814.7442-.6758-2.708,2.3359-.583-.6211-2.4854-2.1982.5488-1.76,5.0508a1.7855,1.7855,0,0,1-1.2978,1.2305l-3.2427.81a1.5113,1.5113,0,0,1-2.1152-1.167l-1.1768-4.71q-.3911-1.5719,1.3252-1.999l2.7891-.6973.67,2.6836-2.1431.5352.6206,2.4843,2.0064-.5,1.7358-5.0312a1.7832,1.7832,0,0,1,1.3223-1.25Z" transform="translate(-217.3848 -172.7012)"/><path class="cls-1" d="M239.814,304.8223l.3877,2.7636-.4908.0684q.3061.9609.6128,1.9209a13.4332,13.4332,0,0,1,.4849,1.9277q.2212,1.5777-1.5029,1.8194l-5.105.7158q-1.7535.246-1.981-1.3818l-.5473-3.8995-3.2535.4561.3877,2.7637,2.0191-.2832.3667,2.6123-2.65.372q-1.7527.2461-1.9815-1.3818l-.6845-4.8848q-.2249-1.6009,1.5273-1.8476Zm-2.168,3.0957-3.8.5341.3877,2.7637,3.9126-.55Z" transform="translate(-217.3848 -172.7012)"/><path class="cls-1" d="M239.3359,294.0205l.1084,3.1074-6.4638,2.7871,6.5522-.2275.1011,2.917-22.1475.7685-.1015-2.916,13.3032-.4629-5.5283-2.1162-.106-3.0429.0567-.002,6.5986,2.7412Z" transform="translate(-217.3848 -172.7012)"/><path class="cls-1" d="M239.9707,284.3994l-.1963,2.7842-.4941-.0342q.1011,1.002.2,2.0059a13.3151,13.3151,0,0,1,.0732,1.9863q-.1113,1.5894-1.8486,1.4668l-5.1416-.36q-1.766-.123-1.6509-1.7636l.2754-3.9287-3.2769-.23-.1953,2.7832,2.0342.1435-.1846,2.6309-2.67-.1865q-1.7651-.1245-1.65-1.7637l.3457-4.9209q.1128-1.6128,1.8784-1.49Zm-2.7646,2.5781-3.8287-.2675-.1948,2.7841,3.94.2764Z" transform="translate(-217.3848 -172.7012)"/><path class="cls-1" d="M241.7563,273.83l-.5175,2.8594-.4878-.0889q.044,3.0132-.02,3.3633a2.1636,2.1636,0,0,1-1.0107,1.5664,2.8522,2.8522,0,0,1-2.0264.2666l-8.7089-1.5762a2.6012,2.6012,0,0,1-2.1827-1.5361,4.7483,4.7483,0,0,1-.06-2.5235q.0659-.3633.2187-1.0488.1524-.684.2051-.9727l-7.7329-1.4013.5176-2.8584Zm-3.2622,2.3613-8.667-1.5693-.32,1.7675q-.1735.9552.8858,1.1456l6.73,1.2187q1.032.186,1.1944-.7158C238.3433,277.8955,238.4023,277.2813,238.4941,276.1914Z" transform="translate(-217.3848 -172.7012)"/><path class="cls-1" d="M242.9463,263.1885q1.6962.5054,1.229,2.08l-1.4321,4.8261a1.51,1.51,0,0,1-2.1641,1.0723l-10.3174-3.0606q-1.6977-.5038-1.23-2.08l1.4317-4.8262a1.5121,1.5121,0,0,1,2.165-1.0723l5.0361,1.4942.627,1.0234-1.3447,4.5332,3.8418,1.14.7793-2.627-2.28-.6768.7939-2.6757Zm-7.2427.7636-3.2847-.9755-.7793,2.6279,3.2852.9746Z" transform="translate(-217.3848 -172.7012)"/><path class="cls-1" d="M250.9648,248.7549l-1.1748,2.6426L239.1919,246.69l-1.0615,2.5274,10.5473,4.6855-1.18,2.6553-10.5986-4.709-1.0605,2.5283,10.5478,4.6846-1.1855,2.666-13.07-5.8047,1.185-2.666.479.211q.2446-1.005.4859-2.001a12.3843,12.3843,0,0,1,.6391-1.961q.408-.92,1.1094-.93.2665-1.0516.5195-2.1113a13.2573,13.2573,0,0,1,.6465-2.084,1.4776,1.4776,0,0,1,2.2383-.749Z" transform="translate(-217.3848 -172.7012)"/><path class="cls-1" d="M239.6992,236.0752l-1.48,2.5156-2.88-1.6953,1.48-2.5146Zm14.083,8.3174-1.4551,2.4717L240.002,239.61l1.4541-2.4708Z" transform="translate(-217.3848 -172.7012)"/><path class="cls-1" d="M258.3267,234.5a1.5116,1.5116,0,0,1,.5,2.3643l-2.8984,4.1152a1.5122,1.5122,0,0,1-2.394.3242l-8.7984-6.1963a1.5116,1.5116,0,0,1-.5009-2.3633l2.8984-4.1162a1.5107,1.5107,0,0,1,2.3935-.3242l4.2959,3.0244.2666,1.169-2.7226,3.8672,3.2768,2.3066,1.5777-2.2393-1.9453-1.37,1.6069-2.2812Zm-7.1065-1.5908-2.8013-1.9737-1.5781,2.2393,2.8028,1.9736Z" transform="translate(-217.3848 -172.7012)"/><path class="cls-1" d="M270.9058,223.3447l-2.0479,2.0625-.3511-.35q-.58.8438-1.167,1.6973a12.4431,12.4431,0,0,1-1.2861,1.5957,1.4913,1.4913,0,0,1-2.3789-.1172l-8.9517-8.8906,2.0391-2.0528L265,225.4727l1.8994-2.0127-8.1885-8.1329,2.0474-2.0615Z" transform="translate(-217.3848 -172.7012)"/><path class="cls-1" d="M274.8125,220.0381l-2.18,1.8623-2.2261-2.6045,2.18-1.8633Z" transform="translate(-217.3848 -172.7012)"/><path class="cls-1" d="M289.69,209.7227l-2.5508,1.5937-5.2675-8.4307-3.4263,2.1416,5.2681,8.43-2.5293,1.5811-11.7432-18.794,2.5293-1.581,4.84,7.7461,3.4258-2.1406-4.84-7.7452,2.55-1.5937Z" transform="translate(-217.3848 -172.7012)"/><path class="cls-1" d="M299.1963,205.1318l-2.5225,1.1944-.2129-.4483q-.8247.58-1.65,1.1582a13.34,13.34,0,0,1-1.6943,1.0371q-1.44.6826-2.1855-.8916l-2.2061-4.6591a1.5111,1.5111,0,0,1,.7285-2.3028l3.56-1.6855-1.4063-2.97-2.5224,1.1943.873,1.8428-2.3847,1.13-1.1455-2.4189a1.5117,1.5117,0,0,1,.7285-2.3037l4.457-2.1113q1.4634-.6915,2.2207.9082Zm-3.6025-1.1455-1.6421-3.4687-2.522,1.1943,1.69,3.57Z" transform="translate(-217.3848 -172.7012)"/><path class="cls-1" d="M309.3584,201.47l-2.769.961-3.8033-10.9561-2.57.9522,3.7852,10.9023-2.7569.957-4.6909-13.5107,2.7573-.957.1724.4951q.9017-.5083,1.7974-.999a11.9728,11.9728,0,0,1,1.8642-.8868q1.5059-.5229,2.0762,1.1231Z" transform="translate(-217.3848 -172.7012)"/><path class="cls-1" d="M319.7568,198.9668l-2.8325.6494-.1108-.4834q-2.7525,1.2261-3.1,1.3047a2.1628,2.1628,0,0,1-1.8369-.3115,2.8616,2.8616,0,0,1-1.044-1.7588l-1.9766-8.627a2.6,2.6,0,0,1,.5528-2.6113,4.75,4.75,0,0,1,2.2959-1.0488q.36-.0821,1.05-.211t.9751-.1943l-1.7554-7.6611,2.8325-.6494Zm-3.455-2.0713-1.9673-8.584-1.7515.4014q-.9434.2153-.7041,1.2646l1.5274,6.6661q.2351,1.0224,1.1289.8164Q314.7461,197.4131,316.3018,196.8955Z" transform="translate(-217.3848 -172.7012)"/><path class="cls-1" d="M330.0059,195.8662q.2072,1.7578-1.4268,1.9492l-4.9995.5879q-1.6326.1905-1.8389-1.5674l-1.2544-10.6884q-.2058-1.7579,1.4273-1.95l5-.585q1.6326-.1934,1.8389,1.5654l.6123,5.2178-.6934.98-4.6963.5518.4673,3.98,2.7217-.3194-.2779-2.3633,2.772-.3242Zm-3.5557-6.3555-.3989-3.4033-2.7217.3194.3994,3.4043Z" transform="translate(-217.3848 -172.7012)"/><path class="cls-1" d="M335.49,197.45l-2.8652.1016-.7773-22.1475,2.8662-.1016Z" transform="translate(-217.3848 -172.7012)"/><path class="cls-1" d="M346.0518,195.958q-.0807,1.77-1.6973,1.6953l-4.9014-.2236q-1.6164-.0732-1.5361-1.8418l.14-3.0693,2.7881.1269-.1093,2.4043,2.559.1172.1026-2.2637-4.3355-3.1318a1.7836,1.7836,0,0,1-.8076-1.5947l.1519-3.34q.08-1.7666,1.7221-1.6924l4.8516.22q1.6157.0747,1.5361,1.8418l-.13,2.871-2.7632-.125.1006-2.207-2.56-.1152-.0938,2.0644,4.3247,3.1026a1.7791,1.7791,0,0,1,.8189,1.625Z" transform="translate(-217.3848 -172.7012)"/><path class="cls-1" d="M356.3809,197.4043q-.2652,1.7505-1.8658,1.5068l-4.851-.7363q-1.6-.2432-1.334-1.9941l.4609-3.0371,2.7593.42-.3618,2.38,2.5332.3837.34-2.2392-3.9824-3.57a1.7822,1.7822,0,0,1-.6348-1.6719l.5015-3.3037q.2658-1.749,1.8916-1.5029l4.8.73q1.6.2432,1.3345,1.9921l-.4322,2.8428-2.7338-.416.3315-2.1836-2.5322-.3848-.3106,2.044,3.9741,3.539a1.784,1.784,0,0,1,.6441,1.7022Z" transform="translate(-217.3848 -172.7012)"/><path class="cls-1" d="M366.7148,199.9922q-.4511,1.7124-2.0161,1.3l-4.893-1.2871a1.5125,1.5125,0,0,1-1.14-2.1309l2.7393-10.4072q.45-1.7109,2.04-1.293l4.8926,1.2871q1.5659.4117,1.1152,2.1241l-.8647,3.2861-2.7486-.7236.6275-2.3829-2.5269-.664-2.2661,8.6133,2.5259.666.6953-2.6445,2.749.7246Z" transform="translate(-217.3848 -172.7012)"/><path class="cls-1" d="M376.38,205.4424l-2.7378-1.0479,4.1484-10.831-2.58-.9258-4.1279,10.7764-2.7256-1.044,7.9273-20.6953,2.7251,1.044-2.9986,7.8291q1.013.205,2.0308.3984a12.5418,12.5418,0,0,1,1.9853.5176,1.4777,1.4777,0,0,1,.8643,2.1963Z" transform="translate(-217.3848 -172.7012)"/><path class="cls-1" d="M385.9927,210.2451l-2.5855-1.3262.2266-.4414q-.98-.2958-1.9707-.5986a12.4962,12.4962,0,0,1-1.9111-.7412q-1.4181-.7266-.6089-2.3018l5.76-11.2246,2.5742,1.32-5.3017,10.3311,2.4927,1.1992,5.269-10.2676,2.585,1.3262Z" transform="translate(-217.3848 -172.7012)"/><path class="cls-1" d="M390.4746,213.0518l-2.4336-1.5147L399.7461,192.72l2.4346,1.5157Z" transform="translate(-217.3848 -172.7012)"/><path class="cls-1" d="M400.2559,217.8467a1.5114,1.5114,0,0,1-2.375.4414l-4.042-3a1.5118,1.5118,0,0,1-.2657-2.4014l6.4131-8.6426a1.5108,1.5108,0,0,1,2.3745-.4414l4.0425,2.9991a1.5126,1.5126,0,0,1,.2656,2.4023l-3.13,4.2178-1.1763.2383-3.7978-2.8174-2.3868,3.2177,2.2,1.6329,1.417-1.9092,2.2412,1.6631Zm1.7666-7.0654,2.042-2.753-2.2-1.6318-2.0415,2.751Z" transform="translate(-217.3848 -172.7012)"/></svg>